<?xml version="1.0" encoding="UTF-8"?>
<svg version="1.1" xmlns="http://www.w3.org/2000/svg" width="844" height="570">
<path d="M0 0 C278.52 0 557.04 0 844 0 C844 188.1 844 376.2 844 570 C565.48 570 286.96 570 0 570 C0 381.9 0 193.8 0 0 Z " fill="#FEFEFE" transform="translate(0,0)"/>
<path d="M0 0 C0.83402344 0.23976563 1.66804688 0.47953125 2.52734375 0.7265625 C9.35032879 3.2699767 14.32061775 6.48332707 18.09375 12.84375 C20.87182846 19.12014948 21.21216555 26.15025199 19.15625 32.6796875 C14.83079713 42.29505233 6.35391578 47.67345674 -2.1875 53.375 C-3.88428801 54.52187888 -5.58090246 55.66901457 -7.27734375 56.81640625 C-8.09315918 57.36570801 -8.90897461 57.91500977 -9.74951172 58.48095703 C-12.59811984 60.40372116 -15.42617806 62.35349703 -18.25 64.3125 C-19.25933594 65.01246094 -20.26867187 65.71242188 -21.30859375 66.43359375 C-24.32288456 68.5281239 -27.33525256 70.62541318 -30.34765625 72.72265625 C-42.15780962 80.94455493 -53.98683428 89.13668862 -65.85644531 97.27246094 C-67.75889059 98.57685292 -69.66084424 99.88195726 -71.5625 101.1875 C-72.20646729 101.6294873 -72.85043457 102.07147461 -73.51391602 102.52685547 C-78.4931744 105.95020794 -83.45029301 109.40462187 -88.40405273 112.86474609 C-92.33524587 115.60743898 -96.27315719 118.34033805 -100.21386719 121.06933594 C-101.9923681 122.30175665 -103.7692331 123.53654377 -105.54394531 124.77441406 C-131.02205686 142.50237212 -150.67062173 146.32006391 -181.27929688 141.42333984 C-185.84345493 140.71315947 -190.42170523 140.1110328 -195 139.5 C-202.04543699 138.54651011 -209.08714428 137.5704256 -216.125 136.5625 C-216.96861084 136.44205322 -217.81222168 136.32160645 -218.68139648 136.19750977 C-223.73595504 135.47395811 -228.7883989 134.73717214 -233.83984375 133.9921875 C-238.63437495 133.28541225 -243.4320083 132.61219524 -248.234375 131.9609375 C-252.42040013 131.3903298 -256.55698319 130.72295797 -260.703125 129.9140625 C-268.99408575 128.44621812 -274.51923671 127.88724094 -281.7097168 132.80249023 C-284.63669789 135.05840566 -287.33449332 137.43949813 -290 140 C-288.48748853 143.30773536 -286.66288647 145.51422454 -284.0234375 148.046875 C-282.29240846 151.35036553 -282.07258274 154.45766569 -283 158 C-285.10122204 160.70060428 -287.67645762 162.5688551 -290.4375 164.5625 C-291.54520752 165.40917236 -291.54520752 165.40917236 -292.67529297 166.27294922 C-294.76902047 167.86915731 -296.88278194 169.43519261 -299 171 C-300.5456593 172.20322188 -302.08833957 173.41030651 -303.625 174.625 C-304.64207031 175.40810547 -304.64207031 175.40810547 -305.6796875 176.20703125 C-308.11368367 178.08784647 -310.53140037 179.98819618 -312.94677734 181.89282227 C-314.74755404 183.31057429 -316.55339745 184.72169462 -318.359375 186.1328125 C-320.79047424 188.03626158 -323.19204551 189.97016237 -325.578125 191.9296875 C-326.71870189 192.84901803 -327.85932504 193.76829116 -329 194.6875 C-330.010625 195.51636719 -331.02125 196.34523438 -332.0625 197.19921875 C-335.51948938 199.31846357 -337.03017897 199.85960691 -341 199 C-343.19466202 197.03279595 -344.82937268 195.28733425 -346.625 193 C-347.39759155 192.05809814 -347.39759155 192.05809814 -348.18579102 191.09716797 C-352.41358874 185.88868558 -356.43312439 180.51691873 -360.41723633 175.12084961 C-365.59668383 168.12002079 -371.11607406 161.41153378 -376.63427734 154.67724609 C-378.87401399 151.92662207 -381.04628321 149.12619149 -383.2109375 146.31640625 C-385.53970881 143.30120671 -387.89468557 140.30698595 -390.25 137.3125 C-390.71937988 136.71550293 -391.18875977 136.11850586 -391.67236328 135.50341797 C-392.63502131 134.2790792 -393.59774985 133.05479587 -394.56054688 131.83056641 C-397.32640919 128.31319265 -400.09076512 124.79463407 -402.85424805 121.27539062 C-405.25491266 118.21866783 -407.65855211 115.16434493 -410.06640625 112.11328125 C-410.56785156 111.47712891 -411.06929687 110.84097656 -411.5859375 110.18554688 C-412.54726881 108.96608031 -413.50946435 107.74729439 -414.47265625 106.52929688 C-420.00698033 99.50432896 -420.00698033 99.50432896 -419.953125 95.61328125 C-418.78024535 91.16691372 -417.36248561 89.96306159 -413.75 87.1875 C-412.9463501 86.55702759 -412.9463501 86.55702759 -412.12646484 85.91381836 C-410.43117712 84.59052885 -408.71705037 83.29487293 -407 82 C-405.93359269 81.17616326 -404.86846171 80.35067143 -403.8046875 79.5234375 C-401.66484613 77.86394851 -399.51729526 76.21526555 -397.36328125 74.57421875 C-382.65497535 63.87589707 -382.65497535 63.87589707 -369 52 C-365.75 51.625 -365.75 51.625 -362 52 C-359.5 54 -359.5 54 -357 57 C-356.07767578 58.01126953 -356.07767578 58.01126953 -355.13671875 59.04296875 C-350 64.69438878 -350 64.69438878 -350 67 C-332.71799644 57.77795 -332.71799644 57.77795 -315.81347656 47.890625 C-311.89342315 45.50083606 -307.91856678 43.39984012 -303.7890625 41.40234375 C-297.70305352 38.34229162 -291.80134108 34.92416035 -285.85791016 31.59814453 C-280.76366156 28.74943863 -275.66445572 25.90965853 -270.56393433 23.07220459 C-268.78034519 22.07939128 -266.9976915 21.08491347 -265.21508789 20.09033203 C-264.10770264 19.47399902 -263.00031738 18.85766602 -261.859375 18.22265625 C-260.87420898 17.67359619 -259.88904297 17.12453613 -258.87402344 16.55883789 C-247.15301978 10.20149773 -236.56007984 11.30440311 -223.7487793 13.65087891 C-216.21884222 15.01967395 -208.65297986 16.03061731 -201.0625 17 C-200.39366791 17.08585358 -199.72483582 17.17170715 -199.03573608 17.26016235 C-189.95102209 18.42237748 -180.85737478 19.46783853 -171.75 20.4375 C-160.96642835 21.59145552 -150.23450829 23.02664608 -139.5 24.5625 C-138.75488159 24.66859589 -138.00976318 24.77469177 -137.24206543 24.88400269 C-132.49046567 25.56305643 -127.74457227 26.27347671 -123 27 C-121.90840576 27.15718506 -120.81681152 27.31437012 -119.69213867 27.47631836 C-110.99816925 28.84455199 -110.99816925 28.84455199 -107.3125 32.4375 C-106.66925781 33.03433594 -106.02601563 33.63117188 -105.36328125 34.24609375 C-104 36 -104 36 -104 39 C-91.83925913 34.77252351 -80.04820873 29.9100135 -68.26733398 24.72485352 C-62.73176454 22.29786472 -57.15600312 19.97976781 -51.56103516 17.69360352 C-47.04653292 15.84759869 -42.54678839 13.970405 -38.05664062 12.06591797 C-34.87882607 10.71999692 -31.69551157 9.38737129 -28.51171875 8.05566406 C-26.77516572 7.32579866 -25.04092729 6.59041053 -23.30859375 5.85058594 C-20.60726775 4.69877588 -17.89838437 3.56659868 -15.1875 2.4375 C-14.35758545 2.07857666 -13.5276709 1.71965332 -12.67260742 1.34985352 C-8.02071815 -0.56349665 -4.99914131 -1.49260076 0 0 Z " fill="#060606" transform="translate(576,266)"/>
<path d="M0 0 C0.67015137 0.22042969 1.34030273 0.44085938 2.03076172 0.66796875 C26.93487389 8.96750977 44.95287665 24.55655378 57.04296875 47.85546875 C66.06293869 66.2940935 68.25554213 88.07147032 63 108 C62.76667969 108.928125 62.53335938 109.85625 62.29296875 110.8125 C56.00262429 132.41222161 40.4675854 151.97852206 21 163 C20.10410156 163.53367187 19.20820313 164.06734375 18.28515625 164.6171875 C4.82141928 172.38249921 -9.37189974 175.39994644 -24.8125 175.375 C-25.86203857 175.37338867 -26.91157715 175.37177734 -27.99291992 175.37011719 C-36.31592768 175.23907655 -43.19283862 173.98690871 -51 171 C-52.43472656 170.53207031 -52.43472656 170.53207031 -53.8984375 170.0546875 C-76.25100908 162.60383031 -93.74028666 145.75448283 -104.62109375 125.08984375 C-107.36356322 118.94453681 -109.27963433 112.49837578 -111 106 C-111.28472168 104.94437866 -111.28472168 104.94437866 -111.57519531 103.86743164 C-113.00672882 98.09997893 -113.3140903 92.61585316 -113.25 86.6875 C-113.24178223 85.76106689 -113.23356445 84.83463379 -113.22509766 83.88012695 C-112.80296154 57.97776397 -101.37614877 36.65837765 -83.06640625 18.6796875 C-61.45678797 -0.96542003 -27.90244848 -9.68114693 0 0 Z " fill="#FCFCFC" transform="translate(485,94)"/>
<path d="M0 0 C5.57894737 3.15789474 5.57894737 3.15789474 7 6 C7.40941909 11.3224482 6.88064278 14.50284118 4 19 C1.36477218 21.27687305 -1.50980269 23.12176596 -4.4375 25 C-6.16622483 26.14453506 -7.89406147 27.29041258 -9.62109375 28.4375 C-10.5116748 29.02402344 -11.40225586 29.61054688 -12.31982422 30.21484375 C-16.60080747 33.06623285 -20.79790727 36.03413317 -25 39 C-33.18855983 44.75358281 -41.43310905 50.42111271 -49.69921875 56.0625 C-57.28057044 61.23662816 -64.81482844 66.47828246 -72.34765625 71.72265625 C-74.33592076 73.10679487 -76.32420249 74.49090877 -78.3125 75.875 C-79.31547119 76.57326904 -80.31844238 77.27153809 -81.35180664 77.9909668 C-87.57477983 82.32076233 -93.80305681 86.64237399 -100.07128906 90.90649414 C-103.72713857 93.40197215 -107.3273873 95.95853862 -110.8984375 98.57421875 C-129.49511078 112.09666446 -146.16587104 118.85693344 -169.44140625 115.43359375 C-171.5901099 115.07304647 -173.73027447 114.67944243 -175.87133789 114.27612305 C-182.24332263 113.07987113 -188.62096296 112.28760748 -195.0625 111.5625 C-204.84003317 110.4446395 -214.53389305 109.01499328 -224.24291992 107.41259766 C-231.18224702 106.27226294 -238.10818036 105.31840019 -245.09375 104.50390625 C-248.0270918 104.12550516 -250.92764133 103.69876696 -253.84375 103.21484375 C-254.67986816 103.0763501 -255.51598633 102.93785645 -256.37744141 102.79516602 C-257.97991834 102.52558021 -259.58129314 102.24930883 -261.18115234 101.96459961 C-272.26441234 99.93383319 -272.26441234 99.93383319 -282.51953125 103.5546875 C-283.96850273 104.63781007 -285.39961472 105.74520884 -286.8125 106.875 C-288.25321267 107.98087206 -289.69713656 109.08257554 -291.14453125 110.1796875 C-291.80791504 110.68467773 -292.47129883 111.18966797 -293.15478516 111.70996094 C-295.31980368 113.22358331 -297.47858653 114.21732155 -300 115 C-300.57105469 114.2471875 -301.14210938 113.494375 -301.73046875 112.71875 C-306.61442563 106.31053997 -311.59228637 99.99180239 -316.6875 93.75 C-321.19922319 88.22130334 -325.67513463 82.67700718 -330 77 C-330.79792969 75.96488281 -331.59585938 74.92976563 -332.41796875 73.86328125 C-333.25829764 72.76339132 -334.09814476 71.66313313 -334.9375 70.5625 C-335.70964844 69.55316406 -336.48179687 68.54382813 -337.27734375 67.50390625 C-339 65 -339 65 -339 63 C-338.45400146 62.70456299 -337.90800293 62.40912598 -337.34545898 62.10473633 C-326.84165816 56.41458631 -316.37595826 50.67042142 -306 44.75 C-295.45776711 38.73878633 -284.76580278 33.0268407 -274.02539062 27.37988281 C-273.09334557 26.88763969 -273.09334557 26.88763969 -272.14247131 26.38545227 C-270.45298011 25.49333421 -268.76159073 24.60481353 -267.07006836 23.71655273 C-263.92823623 21.95987506 -260.97796987 20.01958177 -258 18 C-256.09680628 16.91355118 -254.1804623 15.84972353 -252.25 14.8125 C-251.30640625 14.30332031 -250.3628125 13.79414063 -249.390625 13.26953125 C-239.94293368 8.25237491 -226.30775936 12.80847455 -216.03720093 14.52520752 C-203.93398498 16.54163903 -191.90714452 18.41288995 -179.66162109 19.31005859 C-171.68524069 19.92721373 -163.86779209 21.26555839 -155.98583984 22.60766602 C-149.9142412 23.61484603 -143.96189174 24.32850922 -137.8125 24.5625 C-130.24008952 24.86004069 -123.32861497 26.1533284 -116 28 C-116.54099815 31.64230148 -117.34936038 33.92231599 -119.625 36.8125 C-120.09164062 37.41707031 -120.55828125 38.02164063 -121.0390625 38.64453125 C-121.68617188 39.42183594 -122.33328125 40.19914062 -123 41 C-123.3724585 41.66016113 -123.74491699 42.32032227 -124.12866211 43.00048828 C-125.88374966 45.66545566 -127.32921281 47.21955973 -130 49 C-135.23329068 50.06545022 -140.35244873 50.19099917 -145.68157959 50.22949219 C-150.17410871 50.26451109 -154.66242133 50.42843094 -159.15234375 50.578125 C-160.0629657 50.60539673 -160.97358765 50.63266846 -161.9118042 50.6607666 C-170.79723896 50.95604519 -179.56093997 51.87493416 -188.375 53 C-189.43146729 53.13344818 -189.43146729 53.13344818 -190.50927734 53.26959229 C-193.8328221 53.69063773 -197.15520401 54.11941039 -200.47705078 54.55371094 C-206.56216629 55.32457658 -212.66469476 55.91721628 -218.76953125 56.5078125 C-221.80545699 56.97035983 -224.22164712 57.71931163 -227 59 C-227.04125 60.258125 -227.0825 61.51625 -227.125 62.8125 C-227.14820313 63.52019531 -227.17140625 64.22789062 -227.1953125 64.95703125 C-227.13254462 67.31359719 -227.13254462 67.31359719 -225 70 C-221.46485232 70.44189346 -218.39267203 69.88820165 -214.96875 69.1015625 C-207.6117079 67.60841373 -200.15802621 67.00420843 -192.69189453 66.31289673 C-189.94875075 66.05773286 -187.20684421 65.79131599 -184.46484375 65.52416992 C-174.73170566 64.59496921 -165.01675888 63.85324316 -155.25 63.390625 C-153.34502161 63.29086342 -151.4400731 63.19052948 -149.53515625 63.08959961 C-145.91797047 62.89854939 -142.3041048 62.76201968 -138.68359375 62.65454102 C-129.44127713 62.24908038 -123.51978733 61.47164524 -116.86743164 54.375 C-115.00894201 52.01137245 -113.20144478 49.62245623 -111.4375 47.1875 C-108.10395556 42.66904641 -104.42000429 40.43264439 -99 39 C-97.68 39 -96.36 39 -95 39 C-95 38.34 -95 37.68 -95 37 C-93.3920253 36.35681012 -91.78404297 35.71363932 -90.17602539 35.07055664 C-88.79486884 34.51799538 -87.41384928 33.96509156 -86.03295898 33.41186523 C-83.13817549 32.25253266 -80.24299941 31.0952729 -77.33984375 29.95703125 C-72.17041241 27.9264999 -67.08218682 25.73775808 -62 23.5 C-56.04399095 20.87748574 -50.06233054 18.36824074 -44 16 C-34.17660051 12.16110362 -24.51507628 8.06444757 -14.8984375 3.734375 C-5.14073318 -0.62947753 -5.14073318 -0.62947753 0 0 Z " fill="#FCFCFC" transform="translate(575,280)"/>
<path d="M0 0 C0.67015137 0.22042969 1.34030273 0.44085938 2.03076172 0.66796875 C26.93487389 8.96750977 44.95287665 24.55655378 57.04296875 47.85546875 C66.06293869 66.2940935 68.25554213 88.07147032 63 108 C62.76667969 108.928125 62.53335938 109.85625 62.29296875 110.8125 C56.00262429 132.41222161 40.4675854 151.97852206 21 163 C20.10410156 163.53367187 19.20820313 164.06734375 18.28515625 164.6171875 C4.82141928 172.38249921 -9.37189974 175.39994644 -24.8125 175.375 C-25.86203857 175.37338867 -26.91157715 175.37177734 -27.99291992 175.37011719 C-36.31592768 175.23907655 -43.19283862 173.98690871 -51 171 C-52.43472656 170.53207031 -52.43472656 170.53207031 -53.8984375 170.0546875 C-76.25100908 162.60383031 -93.74028666 145.75448283 -104.62109375 125.08984375 C-107.36356322 118.94453681 -109.27963433 112.49837578 -111 106 C-111.28472168 104.94437866 -111.28472168 104.94437866 -111.57519531 103.86743164 C-113.00672882 98.09997893 -113.3140903 92.61585316 -113.25 86.6875 C-113.24178223 85.76106689 -113.23356445 84.83463379 -113.22509766 83.88012695 C-112.80296154 57.97776397 -101.37614877 36.65837765 -83.06640625 18.6796875 C-61.45678797 -0.96542003 -27.90244848 -9.68114693 0 0 Z M-80.8125 35.9375 C-95.30149333 52.7941441 -100.59147338 73.15754463 -99 95 C-98.21564937 100.49621325 -96.70990304 105.72829201 -95 111 C-94.69964844 111.93199219 -94.39929688 112.86398438 -94.08984375 113.82421875 C-87.33537066 132.45019 -73.26743677 145.98927676 -55.828125 154.55859375 C-35.97621269 163.2245192 -15.43395913 163.79354417 4.79736328 155.91943359 C19.58114419 149.74832753 31.72249526 139.78224927 40 126 C40.60585938 125.02546875 41.21171875 124.0509375 41.8359375 123.046875 C51.32358114 106.79378083 54.19016187 86.83042455 50.1171875 68.36328125 C44.91014463 48.9610104 32.47918479 31.65514306 15.19873047 21.37133789 C-17.27214848 2.8345717 -55.20542007 8.70863834 -80.8125 35.9375 Z " fill="#070707" transform="translate(485,94)"/>
<path d="M0 0 C2.43549401 0.92488952 3.32417645 1.88495058 4.93041992 3.91821289 C5.4525708 4.56991455 5.97472168 5.22161621 6.51269531 5.89306641 C7.06046631 6.5974585 7.6082373 7.30185059 8.17260742 8.02758789 C8.74809326 8.75196045 9.3235791 9.47633301 9.91650391 10.22265625 C14.17344192 15.59918845 18.35256695 21.03670965 22.51245117 26.48852539 C27.91111038 33.53100024 33.52558215 40.40866341 39.09448242 47.31665039 C45.25352943 54.97597808 51.29305571 62.73156421 57.2824707 70.52416992 C58.51976178 72.10372685 59.78657297 73.66039447 61.07446289 75.19897461 C61.72431152 75.98675293 62.37416016 76.77453125 63.04370117 77.58618164 C63.64239014 78.29444092 64.2410791 79.0027002 64.85791016 79.73242188 C66.04760742 81.77758789 66.04760742 81.77758789 65.8840332 83.90698242 C64.52915407 86.93707114 62.14041315 88.28306789 59.48510742 90.21508789 C58.30228371 91.0889127 57.12138437 91.9653467 55.94213867 92.84399414 C54.99781982 93.54613037 54.99781982 93.54613037 54.03442383 94.26245117 C49.81638956 97.47910399 45.75929693 100.90419697 41.69384766 104.31054688 C37.66829929 107.632661 33.65247393 110.31451976 29.04760742 112.77758789 C23.94429276 107.18421984 19.30154673 101.2821134 14.71557617 95.26586914 C10.68089824 89.9749021 6.54850226 84.76060987 2.42993164 79.53491211 C1.07104123 77.80737887 -0.28322966 76.07633324 -1.63598633 74.34399414 C-5.95277247 68.82155539 -10.30177606 63.33269773 -14.74462891 57.91088867 C-19.829472 51.70404503 -24.81189808 45.43697665 -29.63989258 39.02758789 C-30.39774048 38.02622803 -30.39774048 38.02622803 -31.17089844 37.00463867 C-31.63890869 36.37799316 -32.10691895 35.75134766 -32.58911133 35.10571289 C-33.20338989 34.28441895 -33.20338989 34.28441895 -33.83007812 33.4465332 C-35.05373215 31.62689019 -36.01139783 29.75607585 -36.95239258 27.77758789 C-30.3170769 22.15849173 -23.62379279 16.66082396 -16.69018555 11.41357422 C-12.34909228 8.12202645 -8.18609456 4.65002722 -4.07348633 1.07836914 C-1.95239258 -0.22241211 -1.95239258 -0.22241211 0 0 Z " fill="#FCFCFC" transform="translate(209.952392578125,335.222412109375)"/>
<path d="M0 0 C3.3215064 1.22751323 4.10499814 2.05713026 5.875 5.0625 C6.16796875 7.640625 6.16796875 7.640625 6.0625 10.3125 C6.02189453 11.65054688 6.02189453 11.65054688 5.98046875 13.015625 C5.94566406 13.69109375 5.91085937 14.3665625 5.875 15.0625 C6.45507812 15.22105469 7.03515625 15.37960938 7.6328125 15.54296875 C15.79674687 17.98137159 20.46311256 21.85537005 24.89453125 29.09765625 C27.36756582 34.05357812 27.66751264 39.63198727 26.875 45.0625 C24.75 47.75 24.75 47.75 21.875 49.0625 C18.6875 49 18.6875 49 15.875 48.0625 C13.9588746 45.18831191 13.54583399 43.95136449 13 40.6875 C12.15699829 36.57953929 10.89599073 34.08349073 7.875 31.0625 C7.215 30.7325 6.555 30.4025 5.875 30.0625 C5.875 39.3025 5.875 48.5425 5.875 58.0625 C7.525 58.3925 9.175 58.7225 10.875 59.0625 C17.7781543 62.13056858 22.60331548 67.06680439 25.7578125 74.00390625 C27.81851098 80.95513564 28.34832778 89.72650497 25.25 96.375 C24.50008089 97.63007296 23.70748332 98.8606022 22.875 100.0625 C22.4625 100.67867188 22.05 101.29484375 21.625 101.9296875 C18.71726632 105.77913038 16.06967547 107.56100157 11.625 109.4375 C7.94888795 111.00892477 7.94888795 111.00892477 5.9296875 114.265625 C5.64904482 115.84742919 5.40758341 117.43682371 5.2109375 119.03125 C4.875 121.0625 4.875 121.0625 3.125 123.1875 C-0.04924423 124.42192831 -1.90344545 124.09065571 -5.125 123.0625 C-7 121.4375 -7 121.4375 -8.125 119.0625 C-8.3125 115.3125 -8.3125 115.3125 -8.125 112.0625 C-9.424375 111.69125 -9.424375 111.69125 -10.75 111.3125 C-17.99571114 108.62890328 -23.75682645 103.91415142 -27.16796875 96.92578125 C-29.03810329 91.89485593 -30.2187062 86.40235969 -29.125 81.0625 C-27.8203125 79.328125 -27.8203125 79.328125 -26.125 78.0625 C-19.9952111 77.4057369 -19.9952111 77.4057369 -17.46875 79.3125 C-15.87391168 81.38949874 -15.54620095 82.86641919 -15.125 85.4375 C-14.3936264 89.17969494 -13.4507703 91.96147293 -11.125 95.0625 C-10.465 95.3925 -9.805 95.7225 -9.125 96.0625 C-8.795 87.1525 -8.465 78.2425 -8.125 69.0625 C-9.775 68.7325 -11.425 68.4025 -13.125 68.0625 C-19.74972737 64.46210469 -25.32849795 58.91832608 -28.0625 51.8125 C-29.96145173 44.99514533 -30.03889869 37.99659578 -27.9375 31.25 C-24.30733153 24.86591062 -20.79896288 19.56047616 -14.125 16.0625 C-10.6875 15.25 -10.6875 15.25 -8.125 15.0625 C-8.18300781 14.39863281 -8.24101562 13.73476562 -8.30078125 13.05078125 C-8.53921773 8.38423873 -8.65415175 5.85622762 -6 1.875 C-3.125 0.0625 -3.125 0.0625 0 0 Z " fill="#050505" transform="translate(462.125,117.9375)"/>
<path d="M0 0 C0 7.92 0 15.84 0 24 C-4.33619015 21.83190492 -5.22341957 21.35262204 -7 17 C-7.62772216 12.52406808 -8.06521348 8.0673032 -5.9453125 3.953125 C-2.7639881 0 -2.7639881 0 0 0 Z " fill="#F3F3F3" transform="translate(454,148)"/>
<path d="M0 0 C6.82842073 5.69035061 6.82842073 5.69035061 7.30859375 9.35546875 C7.54752878 14.60479901 7.58351913 18.07683652 4.0625 22.1875 C2.41015625 23.85546875 2.41015625 23.85546875 1 25 C0.67 25 0.34 25 0 25 C0 16.75 0 8.5 0 0 Z " fill="#F9F9F9" transform="translate(468,190)"/>
<path d="M0 0 C0.66 0.33 1.32 0.66 2 1 C-1.3 4.3 -4.6 7.6 -8 11 C-8 8 -8 8 -5.6875 5.5 C-4.800625 4.675 -3.91375 3.85 -3 3 C-2.401875 2.401875 -1.80375 1.80375 -1.1875 1.1875 C-0.795625 0.795625 -0.40375 0.40375 0 0 Z " fill="#262626" transform="translate(446,135)"/>
</svg>
